<svg xmlns="http://www.w3.org/2000/svg" viewBox="18.32 0 302.68 80" width="100%" height="100%">
  <defs>
    <linearGradient id="logoGrad" x1="0%" y1="0%" x2="100%" y2="100%">
      <stop offset="0%" stop-color="#00B5E2"/>
      <stop offset="100%" stop-color="#08325a"/>
    </linearGradient>
  </defs>

  <!-- AL monogram: ascending ribbon (A) into the original L -->
  <g transform="translate(18.32 0)">
    <path fill="url(#logoGrad)" d="M 18.7534 43.6802 L 30 43.6802 L 49.5391 18.6313 L 58.104 18.6313 L 58.104 38.4238 C 58.104 42.1235 59.6138 43.6328 63.3125 43.6328 L 74.2402 43.6328 L 74.2402 52.2031 L 63.3125 52.2031 C 54.8135 52.2031 49.5337 46.9238 49.5337 38.4238 L 49.5337 32.57 L 34.18 52.2505 L 18.7534 52.2505 Z"/>
  </g>

  <!-- "air" in brand cyan — a and i are the exact sealogical glyphs, repositioned -->
  <!-- a (from "sea") -->
  <g transform="translate(-28.8 0)">
    <path fill="#00B5E2" d="M 154.624 45.061 C 154.624 45.061 152.356 46.9517 149.475 46.9517 C 147.587 46.9517 145.887 46.1943 145.887 44.2124 C 145.887 41.9912 148.341 41.522 150.184 41.522 C 152.732 41.522 154.624 41.9458 154.624 41.9458 Z M 160.478 45.1538 L 160.478 28.7729 L 142.817 28.7729 L 142.817 33.7754 L 154.624 33.7754 L 154.624 37.2246 C 154.624 37.2246 151.835 36.7515 149.948 36.7515 C 144.99 36.7515 140.078 38.8306 140.078 44.355 C 140.078 48.9336 143.433 52.1914 148.863 52.1914 C 152.826 52.1914 155.99 49.9248 155.99 49.9248 C 155.99 49.9248 157.975 52.1914 161.184 52.1914 L 163.026 47.2822 C 161.184 46.9517 160.478 46.2881 160.478 45.1538 Z"/>
  </g>
  <!-- i (from "logical") -->
  <g transform="translate(-94.19 0)">
    <path fill="#00B5E2" d="M 238.1 28.7725 L 232.196 28.7725 L 232.196 46.4312 C 232.196 49.7842 235.549 52.1445 238.855 52.1914 L 240.696 47.2339 C 238.902 46.9971 238.1 46.1948 238.1 45.2505 Z"/>
    <path fill="#00B5E2" d="M 232.337 27.125 L 237.861 27.125 L 237.861 21.0815 L 232.337 21.0815 Z"/>
  </g>
  <!-- r: stem + tail reuse the i body glyph; flat top bar echoes the a glyph's bar -->
  <g transform="translate(-82.09 0)">
    <path fill="#00B5E2" d="M 238.1 28.7725 L 232.196 28.7725 L 232.196 46.4312 C 232.196 49.7842 235.549 52.1445 238.855 52.1914 L 240.696 47.2339 C 238.902 46.9971 238.1 46.1948 238.1 45.2505 Z"/>
  </g>
  <path fill="#00B5E2" d="M 150.106 28.7725 L 163.3 28.7725 L 163.3 33.7754 L 150.106 33.7754 Z"/>

  <!-- "logical" — byte-identical to the sealogical wordmark -->
  <path fill="#08325a" d="M 172.706 18.6675 L 166.804 18.6675 L 166.804 46.4312 C 166.804 49.7842 170.156 52.1445 173.461 52.1914 L 175.302 47.2339 C 173.509 46.9971 172.706 46.1948 172.706 45.2505 Z"/>

  <path fill="#08325a" d="M 189.563 46.9517 C 186.257 46.9517 183.472 44.1631 183.472 40.1968 C 183.472 36.2788 186.257 33.5425 189.563 33.5425 C 192.959 33.5425 195.748 36.2334 195.748 40.1968 C 195.748 44.1631 192.959 46.9517 189.563 46.9517 Z M 189.563 28.3008 C 182.856 28.3008 177.663 33.2578 177.663 40.1968 C 177.663 47.5186 182.856 52.1914 189.563 52.1914 C 196.359 52.1914 201.554 47.5186 201.554 40.1968 C 201.554 33.2578 196.359 28.3008 189.563 28.3008 Z"/>

  <path fill="#08325a" d="M 210.665 38.3096 C 210.665 35.7119 212.558 33.9185 214.963 33.9185 C 217.372 33.9185 219.259 35.7119 219.259 38.3096 C 219.259 41.0942 217.466 42.8428 214.963 42.8428 C 212.508 42.8428 210.665 41.0942 210.665 38.3096 Z M 217.325 49.9248 L 217.325 47.7998 C 221.713 46.8545 224.877 43.3604 224.877 38.3096 C 224.877 36.564 224.455 35.0518 223.745 33.6816 L 226.436 33.6816 L 226.436 28.7729 L 214.963 28.7729 C 209.345 28.7729 205.096 32.6904 205.096 38.3096 C 205.096 42.937 207.739 46.0996 211.469 47.4692 L 211.469 49.9248 L 205.802 49.9248 L 205.802 55.1665 L 223.132 55.1665 L 223.132 61.1641 L 228.657 61.1641 L 228.657 49.9248 Z"/>

  <path fill="#08325a" d="M 238.1 28.7725 L 232.196 28.7725 L 232.196 46.4312 C 232.196 49.7842 235.549 52.1445 238.855 52.1914 L 240.696 47.2339 C 238.902 46.9971 238.1 46.1948 238.1 45.2505 Z"/>
  <path fill="#08325a" d="M 232.337 27.125 L 237.861 27.125 L 237.861 21.0815 L 232.337 21.0815 Z"/>

  <path fill="#08325a" d="M 264.633 34.3906 C 264.021 32.5962 261.141 28.3008 255.002 28.3008 C 248.155 28.3008 243.056 33.2578 243.056 40.1992 C 243.056 47.4702 248.155 52.1914 255.238 52.1914 C 260.337 52.1914 264.303 49.5005 264.303 49.5005 L 261.943 44.7305 C 261.943 44.7305 258.78 46.9512 255.285 46.9512 C 251.555 46.9512 248.865 44.1646 248.865 40.1992 C 248.865 36.2334 251.65 33.542 254.86 33.542 C 257.221 33.542 258.968 35.0991 259.724 36.7046 Z"/>

  <path fill="#08325a" d="M 281.538 45.061 C 281.538 45.061 279.271 46.9517 276.39 46.9517 C 274.502 46.9517 272.803 46.1943 272.803 44.2124 C 272.803 41.9912 275.256 41.522 277.1 41.522 C 279.647 41.522 281.538 41.9458 281.538 41.9458 Z M 287.393 45.1538 L 287.393 28.7729 L 269.732 28.7729 L 269.732 33.7754 L 281.538 33.7754 L 281.538 37.2246 C 281.538 37.2246 278.75 36.7515 276.863 36.7515 C 271.905 36.7515 266.997 38.8306 266.997 44.355 C 266.997 48.9336 270.348 52.1914 275.779 52.1914 C 279.745 52.1914 282.908 49.9248 282.908 49.9248 C 282.908 49.9248 284.89 52.1914 288.099 52.1914 L 289.94 47.2822 C 288.099 46.9517 287.393 46.2881 287.393 45.1538 Z"/>

  <path fill="#08325a" d="M 299.621 45.2505 C 299.621 46.1948 300.424 46.9971 302.218 47.2339 L 300.376 52.1914 C 297.072 52.1445 293.72 49.7842 293.72 46.4312 L 293.72 18.6675 L 299.621 18.6675 Z"/>
</svg>
